# xmcd
#
# Track frame offsets: 
#        150
#        9980
#        21279
#        35662
#        46207
#        55873
#        66232
#        78850
#        88305
#        101206
#        112836
#        127762
#        140169
#        151885
#        163293
#        177225
#        192450
#        205660
#        214448
#        224401
#        236053
#        251427
#        265876
#        275974
#        287359
#        298614
#        308490
#        319363
#        331636
#        343243
#
# Disc length: 4719 seconds
#
# Revision: 0
# Processed by: cddbd v1.5.2PL0 Copyright (c) Steve Scherf et al.
# Submitted via: ExactAudioCopyFreeDBPlugin 1.0
#
DISCID=c9126d1e
DTITLE=Various Artist - Tumbling Tumbleweeds - Disk1
DYEAR=1900
DGENRE=
TTITLE0=The Sons of the Pioneers - Cool Water
TTITLE1=The Sons of the Pioneers - Tumbling Tumbleweeds
TTITLE2=Slim Whitman - The Red River Valley
TTITLE3=The Sons of the Pioneers - Wagon Wheels
TTITLE4=The Sons of the Pioneers - Whoopee Ti Yi To
TTITLE5=The Sons of the Pioneers - A Cowboy's Dream
TTITLE6=Hank Snow - The Golden Rocket
TTITLE7=Eddy Arnold - The Wreck of the Old 97
TTITLE8=Cattlemen - She'll Be Comin' Round the Mountain
TTITLE9=Hank Snow - The Wabash Cannonball
TTITLE10=Merle Haggard - Train Whistle Blues
TTITLE11=Eddy Arnold - Casey Jones
TTITLE12=Rex Allen - On Top of Old Smoky
TTITLE13=Bing Crosby - Clementine
TTITLE14=Charlie McCoy - Shenandoah
TTITLE15=Jimmie Davis - You Are My Sunshine
TTITLE16=Tennessee Ernie Ford - Ballad of Davy Crockett
TTITLE17=Tex Ritter - Big Rock Candy Mountain
TTITLE18=The Sons of the Pioneers - Home on the Range
TTITLE19=Slim Whitman - Down in the Valley
TTITLE20=The Weavers - So Long (It's Been Good to Know Yuh)
TTITLE21=Eddy Arnold - I'm Thinking Tonight of My Blue Eyes
TTITLE22=The Sons of the Pioneers - Don't Fence Me In
TTITLE23=Rex Allen - Sweet Betsy from Pike
TTITLE24=The Sons of the Pioneers - Ragtime Cowboy Joe
TTITLE25=Slim Whitman - Cattle Call
TTITLE26=The Sons of the Pioneers - (Ghost) Riders in the Sky
TTITLE27=Bing Crosby - I'm an Old Cowhand
TTITLE28=The Sons of the Pioneers - Be Honest with Me
TTITLE29=Slim Whitman - Rhinestone Cowboy
EXTD=
EXTT0=
EXTT1=
EXTT2=
EXTT3=
EXTT4=
EXTT5=
EXTT6=
EXTT7=
EXTT8=
EXTT9=
EXTT10=
EXTT11=
EXTT12=
EXTT13=
EXTT14=
EXTT15=
EXTT16=
EXTT17=
EXTT18=
EXTT19=
EXTT20=
EXTT21=
EXTT22=
EXTT23=
EXTT24=
EXTT25=
EXTT26=
EXTT27=
EXTT28=
EXTT29=
PLAYORDER=
